<svg xmlns="http://www.w3.org/2000/svg" viewBox="0 0 90.18 35.19"><title>icone-disque</title><g id="Calque_2" data-name="Calque 2"><g id="Calque_1-2" data-name="Calque 1"><path d="M45.11,3.4C24.87,3.4,8.36,9.72,7.85,17.58v0c.51,7.85,17,14.18,37.26,14.18s36.75-6.33,37.25-14.18v0C81.86,9.72,65.33,3.4,45.11,3.4Zm0,21.47c-10.55,0-19.14-3.23-19.45-7.26v0c.31-4,8.9-7.26,19.45-7.26s19.15,3.22,19.46,7.26v0C64.23,21.64,55.65,24.87,45.08,24.87Zm20.37,1.55-.71.25a1.55,1.55,0,0,0-.2-1.06c.21-.06.41-.14.61-.21,5.49-2,8.95-4.81,8.95-7.83a5.56,5.56,0,0,0-2.1-4,1.59,1.59,0,0,0,.67-.78,6.59,6.59,0,0,1,2.43,4.78C75.1,21.1,71.42,24.23,65.45,26.42Z"/><path d="M45.09,0C20.21,0,0,7.87,0,17.58v0c0,9.71,20.21,17.58,45.09,17.58s45.05-7.87,45.09-17.58v0C90.14,7.87,70,0,45.09,0ZM84.37,17.61c-.48,8.3-17.87,15-39.26,15s-38.79-6.68-39.26-15v0c.47-8.3,17.86-15,39.26-15s38.78,6.69,39.26,15Z"/><path d="M45.09,11.08c-9.32,0-16.91,2.89-17.18,6.5v0c.27,3.61,7.86,6.5,17.18,6.5S62,21.22,62.27,17.61v0C62,14,54.42,11.08,45.09,11.08Zm0,7.86c-1.91,0-3.45-.6-3.45-1.35s1.54-1.34,3.45-1.34,3.45.6,3.45,1.34S47,18.94,45.09,18.94Z"/></g></g></svg>