<svg xmlns="http://www.w3.org/2000/svg" viewBox="0 0 374.14 100.82"><defs><style>.cls-1,.cls-6,.cls-8{fill:#fff;}.cls-1,.cls-7{stroke:#9bc1bc;}.cls-1,.cls-3,.cls-4,.cls-7,.cls-8{stroke-miterlimit:10;}.cls-2,.cls-3,.cls-4{fill:#232323;}.cls-3{stroke:#fff;stroke-width:0.5px;}.cls-4{stroke:#f2f2f2;stroke-width:0.25px;}.cls-5{fill:#ed6a5a;}.cls-7{fill:#cde0dc;}.cls-8{stroke:#f4f1bb;}</style></defs><title>Fichier 11</title><g id="Calque_2" data-name="Calque 2"><g id="Calque_1-2" data-name="Calque 1"><polygon class="cls-1" points="22.92 26.09 323.92 26.09 350.92 60.09 0.92 60.09 22.92 26.09"/><ellipse class="cls-2" cx="175.92" cy="43.09" rx="119" ry="14.5"/><ellipse class="cls-3" cx="175.92" cy="42.09" rx="108.5" ry="11.6"/><ellipse class="cls-3" cx="175.92" cy="42.09" rx="95.5" ry="9.28"/><ellipse class="cls-4" cx="175.92" cy="42.09" rx="60.93" ry="7.42"/><ellipse class="cls-5" cx="175.92" cy="42.09" rx="48.74" ry="5.94"/><ellipse class="cls-6" cx="175.92" cy="42.09" rx="27" ry="2.5"/><rect class="cls-2" x="174.92" y="37.59" width="2" height="5"/><rect class="cls-5" x="251.84" y="37.09" width="1.34" height="6.9"/><rect class="cls-1" x="248.42" y="30.09" width="72" height="5"/><rect class="cls-1" x="246.42" y="29.09" width="15.67" height="8" rx="2.5" transform="translate(508.51 66.18) rotate(-180)"/><rect class="cls-1" x="311.77" y="38.74" width="12.3" height="5" transform="translate(276.68 359.16) rotate(-90)"/><rect class="cls-7" x="0.92" y="60.09" width="350" height="40.23"/><path class="cls-8" d="M13.5,1.68a22.45,22.45,0,0,0,8,9.36c-2.12,3-3.33,7-4.1,11.47a35.79,35.79,0,0,0-8.5-9.28C11.61,9.93,12.85,6,13.5,1.68Z"/><path class="cls-8" d="M31.24,12.09a13,13,0,0,0,4.57,5.29,15.2,15.2,0,0,0-2.25,6.4,20.64,20.64,0,0,0-4.84-5.24A12.77,12.77,0,0,0,31.24,12.09Z"/><path class="cls-8" d="M367.54,38.8a31.44,31.44,0,0,0,5.89,16.49c-4.36,2.9-8,7.65-11.4,13.28A50.43,50.43,0,0,0,355.47,52C360.75,48.89,364.46,44.18,367.54,38.8Z"/><path class="cls-8" d="M347.4,24.43a23.32,23.32,0,0,0,7,10.45c-2.47,2.66-4.15,6.48-5.45,10.87a37.2,37.2,0,0,0-7.44-10.43C344.55,32.4,346.25,28.6,347.4,24.43Z"/></g></g></svg>