<svg xmlns="http://www.w3.org/2000/svg" viewBox="0 0 116.17 48.88"><title>icone-disque-plus</title><g id="Calque_2" data-name="Calque 2"><g id="Calque_1-2" data-name="Calque 1"><path d="M45.11,17.09c-20.24,0-36.75,6.32-37.26,14.18v0c.51,7.85,17,14.18,37.26,14.18S81.86,39.15,82.36,31.3v0C81.86,23.41,65.33,17.09,45.11,17.09Zm0,21.47c-10.55,0-19.14-3.23-19.45-7.26v0c.31-4,8.9-7.26,19.45-7.26s19.15,3.22,19.46,7.26v0C64.23,35.33,55.65,38.56,45.08,38.56Zm20.37,1.55-.71.25a1.55,1.55,0,0,0-.2-1.06c.21-.06.41-.14.61-.21,5.49-2,8.95-4.81,8.95-7.83a5.56,5.56,0,0,0-2.1-4,1.59,1.59,0,0,0,.67-.78,6.59,6.59,0,0,1,2.43,4.78C75.1,34.79,71.42,37.92,65.45,40.11Z"/><path d="M45.09,13.69C20.21,13.69,0,21.56,0,31.27v0C0,41,20.21,48.88,45.09,48.88S90.14,41,90.18,31.3v0C90.14,21.56,70,13.69,45.09,13.69ZM84.37,31.3c-.48,8.3-17.87,15-39.26,15S6.32,39.6,5.85,31.3v0c.47-8.3,17.86-15,39.26-15s38.78,6.69,39.26,15Z"/><path d="M45.09,24.77c-9.32,0-16.91,2.89-17.18,6.5v0c.27,3.61,7.86,6.5,17.18,6.5S62,34.91,62.27,31.3v0C62,27.66,54.42,24.77,45.09,24.77Zm0,7.86c-1.91,0-3.45-.6-3.45-1.35s1.54-1.34,3.45-1.34,3.45.6,3.45,1.34S47,32.63,45.09,32.63Z"/><polygon points="116.17 12.21 116.17 17.21 104.16 17.21 104.16 29.02 99.16 29.02 99.16 17.21 87.15 17.21 87.15 12.21 99.16 12.21 99.16 0 104.16 0 104.16 12.21 116.17 12.21"/></g></g></svg>