<svg xmlns="http://www.w3.org/2000/svg" viewBox="0 0 210.46 91.25"><defs><style>.cls-1{fill:#ed6a5a;}.cls-2{fill:#9bc1bc;}.cls-3{fill:#494949;}.cls-4{fill:#353535;}.cls-5{fill:#232323;}.cls-6{fill:#fff;}</style></defs><title>Fichier 8</title><g id="Calque_2" data-name="Calque 2"><g id="Calque_1-2" data-name="Calque 1"><path d="M120.45,45.68a4.56,4.56,0,0,0,.9-.07,1.18,1.18,0,0,0,.57-.28,1.47,1.47,0,0,0,.38-.59c.1-.25.21-.58.35-1,.71-2.44,1.44-4.87,2.17-7.29s1.47-4.85,2.2-7.29h.85l5.33,16.5h1.1v.43h-6v-.43H130l-1.6-5h-4.35l-.18.5-.3,1c-.12.38-.23.76-.34,1.15s-.2.73-.28,1.05a2.73,2.73,0,0,0-.13.65.5.5,0,0,0,.24.45,1.56,1.56,0,0,0,.56.21,3.68,3.68,0,0,0,.66.06h.59v.43h-4.42Zm3.72-5.45h4.1l-2.1-6.55Z"/><path d="M134.5,45.52a11.39,11.39,0,0,0,1.17-.05.8.8,0,0,0,.61-.32,1.64,1.64,0,0,0,.23-.82c0-.37,0-.91,0-1.61V25.81l-.33-.41H134.5v-.54h5L146.77,40V28c0-.68,0-1.2,0-1.56a1.71,1.71,0,0,0-.18-.78.57.57,0,0,0-.44-.27c-.19,0-.46,0-.79,0h-.55v-.54h4.53v.54h-.58c-.33,0-.6,0-.8,0a.57.57,0,0,0-.45.27,1.83,1.83,0,0,0-.19.78q0,.54,0,1.56V46.22H146l-9-18.88V42.18c0,.85,0,1.5,0,2a2,2,0,0,0,.21,1,.77.77,0,0,0,.61.35,12.16,12.16,0,0,0,1.23.05v.54h-4.6Z"/><path d="M154.8,21.38h-.35a5.85,5.85,0,0,0-2,.28,2.38,2.38,0,0,0-1.24,1.07,5.83,5.83,0,0,0-.65,2.13,27.65,27.65,0,0,0-.18,3.52H150c0-1.32.05-2.6.06-3.85s0-2.51.06-3.8h12.38c0,1.29,0,2.56,0,3.8s0,2.53,0,3.85h-.4a27.69,27.69,0,0,0-.2-3.71,5.12,5.12,0,0,0-.69-2.13,2.12,2.12,0,0,0-1.32-.95,9.15,9.15,0,0,0-2.16-.21V45.46h1.7v.65H153v-.65h1.78Z"/><path d="M167.57,45.52h1.53v.54h-5.65v-.54h1.37V25.4h-1.37v-.54h7.22a5.38,5.38,0,0,1,1.63.25,3.63,3.63,0,0,1,1.41.84,4.51,4.51,0,0,1,1,1.56,6.58,6.58,0,0,1,.39,2.43,6.22,6.22,0,0,1-.27,1.94,4.61,4.61,0,0,1-.71,1.42,4.2,4.2,0,0,1-1.05,1,5,5,0,0,1-1.27.57v.35a3.23,3.23,0,0,1,1.63,1.13,5.61,5.61,0,0,1,.89,1.76,9.33,9.33,0,0,1,.38,2.08c.05.73.08,1.43.1,2.08q0,.7.06,1.32a6.06,6.06,0,0,0,.14,1.08,1.74,1.74,0,0,0,.3.74.63.63,0,0,0,.55.27,1.16,1.16,0,0,0,.42-.08c.13-.06.27-.11.4-.18s0,0,.05,0l.15.48a3,3,0,0,1-.84.35,3.84,3.84,0,0,1-.83.09,3.16,3.16,0,0,1-1.73-.41,2.65,2.65,0,0,1-1-1.15,5.34,5.34,0,0,1-.45-1.74c-.08-.68-.14-1.43-.19-2.26,0-.26,0-.52-.05-.8s0-.56-.07-.85a6.13,6.13,0,0,0-.52-2.13,2.77,2.77,0,0,0-.95-1.13,2.85,2.85,0,0,0-1.26-.45,13.64,13.64,0,0,0-1.45-.08Zm0-20.12v9.37h.8a4,4,0,0,0,1.39-.25,3.15,3.15,0,0,0,1.21-.81,4.24,4.24,0,0,0,.85-1.43,6.11,6.11,0,0,0,.33-2.15,7.76,7.76,0,0,0-.3-2.35,3.58,3.58,0,0,0-.83-1.44,2.91,2.91,0,0,0-1.22-.74,5.6,5.6,0,0,0-1.5-.2Z"/><path d="M182.3,45.61h2.42c.77,0,1.48,0,2.14-.07a3.93,3.93,0,0,0,1.71-.47,2.86,2.86,0,0,0,1.15-1.31,6.26,6.26,0,0,0,.43-2.58h.42v4.93H178v-.43h1.25V29.86H178v-.43h12.53l0,4.1h-.42a5.1,5.1,0,0,0-.72-2.11,3.14,3.14,0,0,0-1.25-1.08,4.4,4.4,0,0,0-1.67-.37c-.63,0-1.3,0-2,0h-2.2v7.38H183c.51,0,1,0,1.36-.05a2,2,0,0,0,1-.33,1.71,1.71,0,0,0,.6-.86,6,6,0,0,0,.22-1.64h.4v6.3h-.4a6.27,6.27,0,0,0-.19-1.51,1.85,1.85,0,0,0-.46-.85,1.48,1.48,0,0,0-.72-.38,5.71,5.71,0,0,0-1-.08H182.3Z"/><path d="M113.24,43.63v2.65h-5.91v-.2h.75v-7.6h-.75v-.2h3v.2h-.84v7.6h1.4a6.9,6.9,0,0,0,1-.06,1.21,1.21,0,0,0,.69-.29,1.46,1.46,0,0,0,.41-.73,5,5,0,0,0,.14-1.37Z"/><path d="M115.69,38.07a13.93,13.93,0,0,1-1.13,2.84l-.67.08a15.92,15.92,0,0,0,.71-2.82Z"/><path d="M195.2,38.28h2.49a6.3,6.3,0,0,1,1.59.19,3.52,3.52,0,0,1,1.33.65,3.3,3.3,0,0,1,.91,1.25,5.83,5.83,0,0,1,0,3.84,3.09,3.09,0,0,1-.86,1.22,3.41,3.41,0,0,1-1.27.65,5.65,5.65,0,0,1-1.56.2H195.2v-.2h.69V38.49h-.69Zm2.1.21v7.59a3.82,3.82,0,0,0,1.45-.24,2.06,2.06,0,0,0,.95-.71,3.12,3.12,0,0,0,.52-1.21,8.49,8.49,0,0,0,.15-1.71,6.28,6.28,0,0,0-.16-1.48,4,4,0,0,0-.51-1.19,2.5,2.5,0,0,0-.87-.78,2.66,2.66,0,0,0-1.23-.28Z"/><path d="M209.66,38.48h-.58a.38.38,0,0,0-.24.11.49.49,0,0,0-.12.29,4.3,4.3,0,0,0,0,.58v4.09a3.17,3.17,0,0,1-.63,2.22,2.46,2.46,0,0,1-1.89.67,7.07,7.07,0,0,1-.87-.06,3,3,0,0,1-.9-.25,2.12,2.12,0,0,1-.74-.52,1.44,1.44,0,0,1-.39-.89,1.48,1.48,0,0,1,0-.33V38.48h-.75v-.2h3v.2h-.77v5.17a7.91,7.91,0,0,0,.07,1,2.35,2.35,0,0,0,.25.8,1.41,1.41,0,0,0,.51.52,1.62,1.62,0,0,0,.83.2,2.07,2.07,0,0,0,.94-.2,1.57,1.57,0,0,0,.63-.57,2.69,2.69,0,0,0,.34-.88,5.94,5.94,0,0,0,.11-1.16V39.47a2.79,2.79,0,0,0-.05-.59.52.52,0,0,0-.13-.3.39.39,0,0,0-.26-.11h-.66v-.2h2.33Z"/><path d="M122.94,67.08H101.65l2.46-8.58,0-.08a.21.21,0,0,1-.06-.08s0,0-.06,0h-2.11l.51-1.75h2.15a1.36,1.36,0,0,1,1,.42,1.53,1.53,0,0,1,.39,1.06,1.79,1.79,0,0,1,0,.23,1.05,1.05,0,0,1-.06.24L104,65.24a8.32,8.32,0,0,0,5.67-2.94,14.86,14.86,0,0,0,3.14-5.68h1.76a17.23,17.23,0,0,1-2.28,4.9,13.35,13.35,0,0,1-3.84,3.76h15Z"/><path d="M134.33,67.08H123.64a1.9,1.9,0,0,1-2-2,1,1,0,0,1,0-.24,1.79,1.79,0,0,0,0-.23.33.33,0,0,0,0-.12.3.3,0,0,0,0-.12L124.11,56h1.8l-2.42,8.38a.24.24,0,0,1,0,.12v.16a.64.64,0,0,0,.19.47.69.69,0,0,0,.51.19h10.69Zm-7.6-12.6a1.79,1.79,0,0,1-2.5,0,1.65,1.65,0,0,1-.51-1.21,1.77,1.77,0,0,1,3-1.25,1.74,1.74,0,0,1,.5,1.25A1.68,1.68,0,0,1,126.73,54.48Z"/><path d="M156.05,67.08H145.48a3.54,3.54,0,0,1-2.61-.75,2.54,2.54,0,0,1-.7-1.83,6.25,6.25,0,0,1,.08-.92c.05-.32.11-.65.19-1a5.26,5.26,0,0,1,.18-.6c.06-.2.13-.4.21-.61.16-.52.3-1,.43-1.44a4.15,4.15,0,0,0,.2-1.13.87.87,0,0,0-.12-.49.48.48,0,0,0-.35-.21h-.06s0,0,0,0h-.12a.84.84,0,0,0-.46.15,3,3,0,0,0-.43.35.5.5,0,0,1-.1.14.5.5,0,0,0-.1.14l-6.24,8.23h-1.25l3-10.53H139l-1.52,5.3,2.85-3.74a5.66,5.66,0,0,1,.52-.61,4.36,4.36,0,0,1,.53-.45,2.9,2.9,0,0,1,1-.58,3.21,3.21,0,0,1,1-.16h.27a.67.67,0,0,1,.24,0A1.79,1.79,0,0,1,145,57a2.17,2.17,0,0,1,.31,1.15,4.58,4.58,0,0,1-.18,1.23c-.11.43-.24.87-.37,1.31l-.06.15a1,1,0,0,0,0,.16c-.18.49-.33,1-.46,1.44a4.89,4.89,0,0,0-.2,1.29,1.5,1.5,0,0,0,.43,1.13,2.11,2.11,0,0,0,1.52.43h10.57Z"/><path d="M178.36,67.08H165.94a1,1,0,0,0-.25,0l-.26,0a1.1,1.1,0,0,1-.25,0,12.13,12.13,0,0,0-.33,1.37c-.12.57-.27,1.16-.45,1.75a10.14,10.14,0,0,1-1.11,2.54,2.25,2.25,0,0,1-2,1.17l-5,0A13,13,0,0,1,159,69a10.56,10.56,0,0,1,4.83-3.16l1.41-4.92a24.69,24.69,0,0,1-2.17,2.48,31.91,31.91,0,0,1-2.43,2.2,6,6,0,0,1-1.72,1.14,3.76,3.76,0,0,1-1.25.27,1.63,1.63,0,0,1-.47-.06l-.35-.1a1.44,1.44,0,0,1-.72-.66,2.14,2.14,0,0,1-.25-1,2,2,0,0,1,0-.41c0-.15,0-.3.07-.45l2.19-7.68h1.75l-2.18,7.68a.58.58,0,0,1,0,.1.44.44,0,0,0,0,.13v.12a1.05,1.05,0,0,0,.06.33.41.41,0,0,0,.21.25,1,1,0,0,0,.69-.11,4.47,4.47,0,0,0,1-.7q1-.87,1.89-1.68a18.6,18.6,0,0,0,1.5-1.64,23.3,23.3,0,0,0,1.62-2.11c.48-.7,1-1.43,1.42-2.18a.21.21,0,0,0,.06-.1l.06-.09h2l-2.53,8.81.25,0,.25,0h12.68Zm-17.84,2.47a8.46,8.46,0,0,0-1.89,2.67l3.16,0c.07,0,.17-.18.29-.47a7.05,7.05,0,0,0,.33-1c.05-.13.1-.27.14-.41s.08-.28.13-.41c.13-.49.25-.95.35-1.38s.17-.71.2-.84A8.7,8.7,0,0,0,160.52,69.55Z"/><path d="M190.29,67.08H179.61a1.91,1.91,0,0,1-1.48-.59,2,2,0,0,1-.55-1.4,1.45,1.45,0,0,1,0-.37,3.38,3.38,0,0,1,.08-.34l4.48-15.75H184l-4.53,15.75a.24.24,0,0,1,0,.12v.16a.65.65,0,0,0,.2.47.69.69,0,0,0,.51.19H190.8Z"/><path d="M210,67.08H192.09a2.39,2.39,0,0,1-1.83-.71,2.25,2.25,0,0,1-.63-1.71,2,2,0,0,1,0-.41c0-.14.05-.29.08-.45a4.41,4.41,0,0,1,1.64-2.3,2.71,2.71,0,0,1-.37-.66,1.92,1.92,0,0,1-.14-.75v-.15a.58.58,0,0,1,0-.2.39.39,0,0,1,0-.15.52.52,0,0,1,.06-.16,3.81,3.81,0,0,1,1.5-2,4.22,4.22,0,0,1,2.44-.87h7l-.51,1.75h-6.83l-.27,0a1.7,1.7,0,0,0-.31.06,2.29,2.29,0,0,0-.74.39,1.27,1.27,0,0,0-.47.66.13.13,0,0,0,0,.1v.14a.74.74,0,0,0,.35.6,1.43,1.43,0,0,0,.86.25h4.25l-.51,1.8h-4.25a1.9,1.9,0,0,0-1.19.45,2.21,2.21,0,0,0-.76,1c0,.08,0,.15-.05.21a.27.27,0,0,0,0,.18,1.11,1.11,0,0,0,.32.82,1.09,1.09,0,0,0,.82.31h17.86Z"/><path d="M72.46,46.16v.07a27.1,27.1,0,0,1-54.17,0v-.07Z"/><path d="M79.94,46.16a34.58,34.58,0,0,1-69.14,0h7.26a27.33,27.33,0,0,0,54.63,0Z"/><path d="M7,46.23h3.37a35,35,0,0,0,70,0h3.37A38.39,38.39,0,0,1,7,46.23Z"/><path d="M90.44,46.16a45.09,45.09,0,1,1-90.17,0H6.11a39.27,39.27,0,0,0,78.52,0Z"/><path class="cls-1" d="M63,46.16a17.65,17.65,0,0,1-35.28,0Z"/><path class="cls-2" d="M7.55,45.34H.27s-.61-24.2,0-23.79,5.12,1.82,5.12,1.82L14.33,6.07l6.58,4.76L34.58,1.92,46.77,5.77,62.41,0,71,10.73l13.63,1.82L78,25.61l9.41,1.77-2.33,9.13,3.24-4.63.81,6.28.71-2.33.64,9.52Z"/><path class="cls-3" d="M3.3,45.35l3.59-1.49L6.1,40.33l2.26.41-.81-9s5.87,4.45,6.18,4.25,3.74-23.78,3.74-23.78l6.07,8.4L33.36,9.41l2.84,3.65s8.93-6.38,9.17-5.67l3.78,11,4-13.16,3.14,5,9-5.67,1.62,15.09,2.43-8.1,3.95,21.35,11.4-3.23-7.15,7.49L86,41.5l-4,2,5.52,1.82Z"/><path class="cls-4" d="M19.7,45.34l5.06-15.89,4,5.37L39,16.9l2.83,8.3,4.56-7.49s2.12,7.9,2.53,7.39S59.37,9.41,59.37,9.41l2.74,13.46,2,10.33,4.15-9,.91,12.32h4.56L69,43.22l5.16,2.13Z"/><path class="cls-5" d="M63.05,45.35H27.7a17.68,17.68,0,1,1,35.35,0Z"/><path class="cls-6" d="M48.37,45.35H42.44a3,3,0,0,1,5.93,0Z"/><path d="M42.44,46.16h5.93a3,3,0,0,1-5.93,0Z"/></g></g></svg>