<svg xmlns="http://www.w3.org/2000/svg" viewBox="0 0 130.42 161.21"><defs><style>.cls-1{fill:#fff;}.cls-2{fill:#4d4d4d;}.cls-3{fill:#9bc1bc;}.cls-4{fill:#494949;}.cls-5{fill:#353535;}.cls-6{fill:#232323;}</style></defs><title>Fichier 9</title><g id="Calque_2" data-name="Calque 2"><g id="Calque_1-2" data-name="Calque 1"><path class="cls-1" d="M32.73,30.88a5.56,5.56,0,0,0,.87-.35,1.41,1.41,0,0,0,.49-.44,1.56,1.56,0,0,0,.21-.67c0-.28.05-.63.07-1.05q.06-3.82.27-7.66c.15-2.55.33-5.11.56-7.68l1-.24c4,5.8,5.87,8.77,9.35,14.8l1.11-.22.08.41c-2.41.47-3.61.74-6,1.32l-.1-.41c.67-.17,1-.25,1.69-.4-1.1-1.81-1.66-2.71-2.8-4.5-1.82.44-2.73.68-4.53,1.18l-.05.54c0,.26,0,.6,0,1s0,.8,0,1.2,0,.77,0,1.1a3.09,3.09,0,0,0,.05.66.5.5,0,0,0,.37.36,1.77,1.77,0,0,0,.62,0,3.93,3.93,0,0,0,.67-.12l.54-.15.05,0,.11.41c-1.76.49-2.64.74-4.39,1.29ZM35,24.53c1.71-.48,2.57-.7,4.28-1.12-1.5-2.33-2.27-3.49-3.86-5.78C35.17,20.39,35.09,21.77,35,24.53Z" transform="translate(-4.17)"/><path class="cls-1" d="M46.79,27.17c.51-.1.9-.19,1.19-.27a.85.85,0,0,0,.56-.43,1.57,1.57,0,0,0,.09-.85q-.06-.56-.24-1.59L45.46,7.37,45,7l-2,.38-.1-.53c2.36-.46,3.55-.66,5.92-1a139.73,139.73,0,0,1,10,14c-.45-4.76-.67-7.14-1.11-11.9-.07-.67-.13-1.19-.19-1.55a1.55,1.55,0,0,0-.3-.75.67.67,0,0,0-.54-.22c-.23,0-.54,0-.94.06l-.65.07,0-.53c2.14-.24,3.22-.34,5.37-.49l0,.54-.68.05a7.65,7.65,0,0,0-.94.11.68.68,0,0,0-.51.31,1.5,1.5,0,0,0-.16.8c0,.36,0,.88.1,1.55.65,7.24,1,10.87,1.62,18.11l-1.28.12A137.69,137.69,0,0,0,46.27,8.78c1,5.85,1.51,8.78,2.52,14.63.14.83.26,1.48.36,1.92a2,2,0,0,0,.38.94.85.85,0,0,0,.68.24c.3,0,.72-.07,1.26-.16l.08.54c-1.86.29-2.8.45-4.66.81Z" transform="translate(-4.17)"/><path class="cls-1" d="M66.85.74l-.42,0a8,8,0,0,0-2.4.38,2.73,2.73,0,0,0-1.44,1.14,5,5,0,0,0-.65,2.17,21.62,21.62,0,0,0,0,3.53l-.52,0c-.05-1.31-.12-2.6-.19-3.83S61.1,1.67,61.05.37A130,130,0,0,1,76.21.11c0,1.29,0,2.56-.08,3.8s0,2.52-.07,3.84h-.47A22.6,22.6,0,0,0,75.46,4a4.63,4.63,0,0,0-.78-2.15,2.58,2.58,0,0,0-1.59-1A12,12,0,0,0,70.45.68l.15,24.08h1.75v.65c-2.63,0-4,0-6.58.12,0-.26,0-.39,0-.65l1.82-.06C67.28,15.19,67.14,10.37,66.85.74Z" transform="translate(-4.17)"/><path class="cls-1" d="M80.7,25.15l1.56.13,0,.53c-2.31-.19-3.47-.26-5.78-.35l0-.54,1.41.06c.41-8,.61-12.06,1-20.09l-1.63-.08,0-.54c3.45.14,5.17.25,8.6.59a6.84,6.84,0,0,1,1.9.45,4.37,4.37,0,0,1,1.58,1,4.32,4.32,0,0,1,1,1.69,5.62,5.62,0,0,1,.13,2.47,5.48,5.48,0,0,1-.55,1.88,4.24,4.24,0,0,1-1,1.3,4.47,4.47,0,0,1-1.28.83,6.38,6.38,0,0,1-1.48.41l0,.35a3.54,3.54,0,0,1,1.68,1.32,5.57,5.57,0,0,1,.75,1.87,8.7,8.7,0,0,1,.14,2.12c0,.73-.1,1.42-.17,2.07,0,.47-.07.91-.1,1.32a6.58,6.58,0,0,0,0,1.09,2,2,0,0,0,.21.77.68.68,0,0,0,.53.34,1.08,1.08,0,0,0,.44,0L90,26l0,0c0,.19,0,.29.09.49a3.25,3.25,0,0,1-.91.22,3.55,3.55,0,0,1-.86,0,3.37,3.37,0,0,1-1.7-.63,2.71,2.71,0,0,1-.86-1.25A5.65,5.65,0,0,1,85.57,23c0-.68,0-1.44.05-2.27,0-.25,0-.52,0-.79s0-.57,0-.86a5.89,5.89,0,0,0-.34-2.18,2.86,2.86,0,0,0-.93-1.22A3.39,3.39,0,0,0,83,15.15a13.16,13.16,0,0,0-1.6-.21C81.14,19,81,21.07,80.7,25.15ZM82.15,5.08c-.27,3.75-.41,5.62-.68,9.36l.89.06a4.85,4.85,0,0,0,1.56-.12,3.57,3.57,0,0,0,1.43-.68,4.13,4.13,0,0,0,1.1-1.32,5.48,5.48,0,0,0,.6-2.1A6.42,6.42,0,0,0,87,7.91a3.4,3.4,0,0,0-.82-1.54,3.53,3.53,0,0,0-1.38-.87A7.34,7.34,0,0,0,83,5.15Z" transform="translate(-4.17)"/><path class="cls-1" d="M95.73,27.21c1,.19,1.47.29,2.45.5.78.16,1.5.3,2.17.41a4.33,4.33,0,0,0,1.84-.05,3,3,0,0,0,1.48-1,5.88,5.88,0,0,0,1.08-2.38l.44.12c-.5,1.9-.75,2.85-1.24,4.76A108,108,0,0,0,91.3,27l.07-.42,1.27.21,2.6-15.61-1.43-.23.07-.42a120.4,120.4,0,0,1,14.24,3l-1,4-.47-.12a4.44,4.44,0,0,0-.27-2.25,3.35,3.35,0,0,0-1.14-1.38,5.31,5.31,0,0,0-1.8-.81c-.7-.18-1.46-.36-2.27-.53-1-.21-1.5-.31-2.5-.5-.55,2.9-.83,4.34-1.38,7.24l.7.14c.55.11,1.05.19,1.47.24a2.36,2.36,0,0,0,1.14-.09,1.67,1.67,0,0,0,.83-.7,5.13,5.13,0,0,0,.6-1.54l.44.1-1.39,6.14-.42-.09a6,6,0,0,0,.13-1.52,1.87,1.87,0,0,0-.31-.94,1.56,1.56,0,0,0-.7-.53,4.92,4.92,0,0,0-1-.31l-1.59-.31C96.59,22.68,96.31,24.19,95.73,27.21Z" transform="translate(-4.17)"/><path class="cls-1" d="M24.91,31.4c.38,1,.56,1.49.94,2.48-2.3.87-3.45,1.33-5.72,2.31L20.05,36l.73-.31c-1.19-2.79-1.78-4.19-3-7L17,29,17,28.85c1.2-.52,1.8-.78,3-1.27l.08.19-.86.35,2.9,7,1.35-.55a8.18,8.18,0,0,0,.92-.42,1.34,1.34,0,0,0,.57-.53,1.55,1.55,0,0,0,.14-.84,5.15,5.15,0,0,0-.35-1.33Z" transform="translate(-4.17)"/><path class="cls-1" d="M25.48,25.26a13.66,13.66,0,0,1-.19,3.1l-.65.32a16.67,16.67,0,0,0-.25-2.91Z" transform="translate(-4.17)"/><path class="cls-1" d="M110.81,23.38c1,.31,1.57.47,2.6.81a7.18,7.18,0,0,1,1.61.73A3.69,3.69,0,0,1,116.18,26a3,3,0,0,1,.52,1.5,4.49,4.49,0,0,1-.31,1.95,4.85,4.85,0,0,1-1,1.68,3.17,3.17,0,0,1-1.26.84,3.43,3.43,0,0,1-1.47.19,6.23,6.23,0,0,1-1.59-.32l-2.6-.81.06-.19.67.2,2.23-7.25-.72-.22Zm2.14.88c-.92,2.89-1.39,4.34-2.31,7.23a4.41,4.41,0,0,0,1.51.24,2.3,2.3,0,0,0,1.16-.36,3.12,3.12,0,0,0,.91-1,8,8,0,0,0,.71-1.57,5.73,5.73,0,0,0,.32-1.46,3.66,3.66,0,0,0-.14-1.3,2.65,2.65,0,0,0-.65-1,2.92,2.92,0,0,0-1.2-.69Z" transform="translate(-4.17)"/><path class="cls-1" d="M125.7,29l-.19-.08a4.12,4.12,0,0,0-.41-.16.39.39,0,0,0-.28,0,.49.49,0,0,0-.24.22,3.47,3.47,0,0,0-.25.51l-1.6,3.77a3.12,3.12,0,0,1-1.47,1.8,2.74,2.74,0,0,1-2.08-.13,6.65,6.65,0,0,1-.82-.39,3.73,3.73,0,0,1-.78-.57,2.21,2.21,0,0,1-.54-.76,1.53,1.53,0,0,1-.08-1,2.69,2.69,0,0,1,.1-.32l.15-.42c.77-2.05,1.15-3.07,1.91-5.12l-.78-.29.07-.19c1.26.46,1.89.69,3.14,1.19l-.08.19-.79-.31c-.74,1.93-1.12,2.89-1.86,4.82a5.57,5.57,0,0,0-.3,1,2.23,2.23,0,0,0,0,.84,1.45,1.45,0,0,0,.31.69,1.71,1.71,0,0,0,.73.5,2.25,2.25,0,0,0,1,.18,1.67,1.67,0,0,0,.82-.27A2.58,2.58,0,0,0,122,34a5.42,5.42,0,0,0,.55-1l1.52-3.61a3.07,3.07,0,0,0,.19-.56.57.57,0,0,0,0-.33.43.43,0,0,0-.21-.21l-.4-.16-.13-.05a1.56,1.56,0,0,1-.15-.06l.07-.19c1,.39,1.43.59,2.38,1Z" transform="translate(-4.17)"/><path class="cls-1" d="M28.4,146.18C18.21,142,13.28,139.26,4.17,132.42c3.11-1.95,4.63-3,7.59-5.08v-.09a.52.52,0,0,1,0-.11.06.06,0,0,0,0-.07c-.84-.6-1.26-.9-2.09-1.52l1.54-1c.83.61,1.25.91,2.1,1.5a1.89,1.89,0,0,1,.8,1.07,1.38,1.38,0,0,1-.2,1.14.84.84,0,0,1-.15.18l-.19.16c-2.28,1.71-3.45,2.55-5.82,4.17a10.76,10.76,0,0,0,7.7,1.55,12.84,12.84,0,0,0,6.17-3l1.82,1a13.79,13.79,0,0,1-4.78,3,13.43,13.43,0,0,1-6.12.72,89,89,0,0,0,17.18,8.78Z" transform="translate(-4.17)"/><path class="cls-1" d="M42.28,150.78a90.3,90.3,0,0,1-13-4.27,2.8,2.8,0,0,1-1.55-1.24,1.76,1.76,0,0,1-.09-1.59,1.28,1.28,0,0,1,.11-.2c.05-.07.09-.18.12-.21a.28.28,0,0,0,.11-.07l.07-.1c2.42-2.62,3.59-4,5.84-6.67.77.3,1.16.45,1.94.73-2.21,2.77-3.35,4.12-5.73,6.78A.19.19,0,0,1,30,144l0,.07,0,.08a.57.57,0,0,0,.05.52,1,1,0,0,0,.53.42,88.11,88.11,0,0,0,12.85,4.12C42.92,149.86,42.71,150.17,42.28,150.78ZM37.2,136.05a2,2,0,0,1-1.52,0,2.08,2.08,0,0,1-1.15-1,1.55,1.55,0,0,1-.09-1.34,1.62,1.62,0,0,1,1-.95,2.18,2.18,0,0,1,2.6,1,1.65,1.65,0,0,1,.12,1.37A1.54,1.54,0,0,1,37.2,136.05Z" transform="translate(-4.17)"/><path class="cls-1" d="M69.65,154.27a91.08,91.08,0,0,1-13.4-.83,5.1,5.1,0,0,1-3.18-1.19,2.3,2.3,0,0,1-.59-1.95,5,5,0,0,1,.25-.89,9.35,9.35,0,0,1,.39-.94,6.12,6.12,0,0,1,.31-.56c.1-.18.22-.37.35-.56L54.5,146a3.53,3.53,0,0,0,.4-1.08.75.75,0,0,0-.07-.51.56.56,0,0,0-.37-.27h-.07s0,0,0,0h-.14a1,1,0,0,0-.56.07,3.2,3.2,0,0,0-.56.26.49.49,0,0,1-.13.12l-.14.11a81.84,81.84,0,0,1-9.17,6.51l-1.54-.39c2.54-3.69,3.75-5.57,6-9.38.81.18,1.22.27,2,.43-1.11,1.94-1.68,2.91-2.86,4.82,1.67-1.17,2.49-1.77,4.07-3a7.43,7.43,0,0,1,.71-.48,5.39,5.39,0,0,1,.68-.34,3.8,3.8,0,0,1,1.28-.38,5.09,5.09,0,0,1,1.11,0l.3,0a.92.92,0,0,1,.27.08,2.06,2.06,0,0,1,1.19.85,1.91,1.91,0,0,1,.22,1.19,4.13,4.13,0,0,1-.36,1.19c-.19.41-.39.82-.61,1.24l-.09.14a.83.83,0,0,0,0,.15c-.28.46-.54.92-.76,1.36a3.92,3.92,0,0,0-.41,1.24,1.36,1.36,0,0,0,.37,1.19,3.1,3.1,0,0,0,1.83.67,91,91,0,0,0,13.19.73C70,153.21,69.91,153.56,69.65,154.27Z" transform="translate(-4.17)"/><path class="cls-1" d="M97.74,150.59a90.36,90.36,0,0,1-15.23,2.92l-.32,0-.32.08-.32.06-.32,0c-.09.35-.18.82-.28,1.4a16,16,0,0,1-.4,1.81,8.76,8.76,0,0,1-1.24,2.65A3.26,3.26,0,0,1,76.7,161c-2.69.17-4,.23-6.74.25a14.06,14.06,0,0,1,3.47-5.14,16.37,16.37,0,0,1,5.95-3.53c.53-2,.77-3,1.23-5.06a20.35,20.35,0,0,1-2.38,2.71,32.25,32.25,0,0,1-2.87,2.4,8,8,0,0,1-2.11,1.23,5.67,5.67,0,0,1-1.57.31,2.2,2.2,0,0,1-.6,0l-.44-.09a1.71,1.71,0,0,1-.92-.66,1.83,1.83,0,0,1-.32-1.05,2,2,0,0,1,0-.41c0-.14.07-.29.1-.45,1.09-3.07,1.59-4.62,2.52-7.71l2-.07c-.87,3.11-1.34,4.67-2.36,7.76a.2.2,0,0,1,0,.1.51.51,0,0,0,0,.13v.12a.8.8,0,0,0,.08.33.44.44,0,0,0,.27.25,1.47,1.47,0,0,0,.85-.14,5.17,5.17,0,0,0,1.26-.75,24.85,24.85,0,0,0,2.23-1.8,18.45,18.45,0,0,0,1.7-1.76,23.82,23.82,0,0,0,1.72-2.27c.49-.76,1-1.54,1.41-2.35a.39.39,0,0,0,.06-.11.19.19,0,0,1,0-.1c.91-.11,1.36-.17,2.27-.3-.66,3.65-1,5.48-1.91,9.13l.32-.06.31-.06.32,0,.31,0a89.61,89.61,0,0,0,15-3C97.84,149.48,97.81,149.85,97.74,150.59Zm-22.29,6a10,10,0,0,0-2.38,2.77c1.68,0,2.52-.06,4.2-.16.11,0,.22-.2.36-.49a6.74,6.74,0,0,0,.36-1.05,2.6,2.6,0,0,0,.15-.42,2.6,2.6,0,0,1,.15-.42c.13-.51.24-1,.34-1.42s.16-.72.18-.85A13.72,13.72,0,0,0,75.45,156.59Z" transform="translate(-4.17)"/><path class="cls-1" d="M112.25,145.61a91.64,91.64,0,0,1-13,4.56,2.76,2.76,0,0,1-2-.07,1.74,1.74,0,0,1-1-1.18,1.64,1.64,0,0,1,0-.37c0-.12,0-.24,0-.35a139.69,139.69,0,0,0,.65-16.57l1.82-.59a137.5,137.5,0,0,1-.36,16.59.31.31,0,0,1,0,.13l0,.08,0,.07a.57.57,0,0,0,.36.38,1,1,0,0,0,.67,0,89.54,89.54,0,0,0,12.73-4.57Z" transform="translate(-4.17)"/><path class="cls-1" d="M134.58,132.83a90.88,90.88,0,0,1-20.21,11.85,3.48,3.48,0,0,1-2.45.31,2.05,2.05,0,0,1-1.39-1.28,1.56,1.56,0,0,1-.11-.4l-.09-.45a4.09,4.09,0,0,1,.23-1.47,5.46,5.46,0,0,1,.74-1.44,2.72,2.72,0,0,1-.68-.43,1.59,1.59,0,0,1-.45-.61l-.06-.15a.69.69,0,0,1,0-.19.75.75,0,0,1,0-.16,1,1,0,0,1,0-.17,4,4,0,0,1,.82-2.56,5.87,5.87,0,0,1,2.22-2l.08,0,.08,0c2.88-1.42,4.3-2.19,7.08-3.86.16.73.23,1.09.38,1.82-2.84,1.68-4.29,2.46-7.22,3.89l-.29.16a2.11,2.11,0,0,0-.31.21,3,3,0,0,0-.64.73,1.43,1.43,0,0,0-.23.84.11.11,0,0,0,0,.11l.06.12a.7.7,0,0,0,.64.37,2,2,0,0,0,1.05-.21c1.87-.9,2.8-1.37,4.64-2.37l.3,1.88c-1.88,1-2.83,1.48-4.74,2.37a2.77,2.77,0,0,0-1.15,1,2.33,2.33,0,0,0-.45,1.33,1.52,1.52,0,0,0,0,.23.27.27,0,0,0,.09.15c.16.19.37.51.69.59a1.63,1.63,0,0,0,1.08-.15A89.34,89.34,0,0,0,134.07,131C134.28,131.74,134.38,132.1,134.58,132.83Z" transform="translate(-4.17)"/><path class="cls-1" d="M100.08,82.78v.08a30.7,30.7,0,0,1-61.37,0v-.08Z" transform="translate(-4.17)"/><path class="cls-1" d="M108.55,82.78a39.17,39.17,0,0,1-78.32,0h8.22a31,31,0,0,0,61.89,0Z" transform="translate(-4.17)"/><path class="cls-1" d="M25.92,82.86h3.81a39.67,39.67,0,0,0,79.32,0h3.81a43.48,43.48,0,0,1-86.94,0Z" transform="translate(-4.17)"/><path class="cls-1" d="M120.44,82.78a51.07,51.07,0,1,1-102.14,0h6.62a44.48,44.48,0,0,0,88.94,0Z" transform="translate(-4.17)"/><path class="cls-2" d="M89.35,82.78a20,20,0,0,1-40,0Z" transform="translate(-4.17)"/><path class="cls-3" d="M26.55,81.85H18.3s-.68-27.41,0-26.95A60.86,60.86,0,0,0,24.11,57l10.12-19.6,7.46,5.39L57.16,32.67,71,37l17.71-6.54,9.75,12.15,15.43,2.07L106.35,59.5l10.66,2-2.64,10.33L118,66.61l.92,7.1.8-2.63.73,10.78Z" transform="translate(-4.17)"/><path class="cls-4" d="M21.74,81.86l4.07-1.69-.9-4,2.56.46-.92-10.15s6.65,5.05,7,4.82,4.25-26.95,4.25-26.95l6.88,9.52L55.79,41.15,59,45.28s10.12-7.22,10.39-6.42,4.28,12.5,4.28,12.5l4.47-14.91,3.56,5.62,10.2-6.42,1.84,17.08,2.75-9.17L101,67.75l12.91-3.67-8.1,8.49,9.63,4.93-4.52,2.29,6.24,2.06Z" transform="translate(-4.17)"/><path class="cls-5" d="M40.31,81.85l5.73-18,4.59,6.08L62.21,49.64,65.42,59l5.16-8.49s2.4,9,2.86,8.37S85.25,41.15,85.25,41.15l3.1,15.25,2.29,11.7,4.7-10.21,1,14h5.16l-5.39,7.61L102,81.86Z" transform="translate(-4.17)"/><path class="cls-6" d="M89.42,81.86H49.37a20,20,0,1,1,40.05,0Z" transform="translate(-4.17)"/><path d="M72.79,81.86H66.07a3.39,3.39,0,0,1,6.72,0Z" transform="translate(-4.17)"/><path class="cls-1" d="M66.07,82.78h6.72a3.39,3.39,0,0,1-6.72,0Z" transform="translate(-4.17)"/></g></g></svg>