<svg xmlns="http://www.w3.org/2000/svg" viewBox="0 0 48.07 48.48"><defs><style>.cls-1{fill:#ed6a5a;}.cls-2{fill:#9bc1bc;}.cls-3{fill:#494949;}.cls-4{fill:#353535;}.cls-5{fill:#232323;}.cls-6{fill:#fff;}</style></defs><title>Fichier 10</title><g id="Calque_2" data-name="Calque 2"><g id="Calque_1-2" data-name="Calque 1"><path d="M38.5,24.52v0a14.4,14.4,0,0,1-28.78,0v0Z"/><path d="M42.47,24.52a18.37,18.37,0,0,1-36.73,0H9.59a14.52,14.52,0,0,0,29,0Z"/><path d="M3.72,24.56H5.5a18.61,18.61,0,0,0,37.21,0h1.78a20.39,20.39,0,0,1-40.77,0Z"/><path d="M48.05,24.52a24,24,0,1,1-47.91,0H3.25a20.86,20.86,0,0,0,41.71,0Z"/><path class="cls-1" d="M33.47,24.52a9.38,9.38,0,0,1-18.75,0Z"/><path class="cls-2" d="M4,24.09H.14s-.32-12.85,0-12.64a27.69,27.69,0,0,0,2.73,1L7.62,3.23l3.49,2.52L18.37,1l6.48,2.05L33.16,0l4.57,5.7,7.24,1-3.53,6.94,5,.94L45.2,19.4l1.72-2.46.43,3.33L47.73,19l.34,5.05Z"/><path class="cls-3" d="M1.75,24.09l1.91-.79-.42-1.87,1.2.21L4,16.89a29.13,29.13,0,0,0,3.28,2.25c.16-.1,2-12.63,2-12.63L12.51,11l5.21-6,1.51,1.94s4.75-3.39,4.88-3,2,5.86,2,5.86l2.1-7,1.67,2.63,4.78-3,.86,8,1.29-4.3,2.1,11.35L45,15.76l-3.8,4,4.52,2.31-2.13,1.07,2.93,1Z"/><path class="cls-4" d="M10.47,24.09l2.68-8.44L15.3,18.5,20.74,9l1.5,4.41,2.42-4s1.13,4.2,1.35,3.93S31.54,5,31.54,5L33,12.15l1.07,5.49,2.21-4.79.48,6.55h2.42L36.65,23l2.75,1.13Z"/><path class="cls-5" d="M33.5,24.09H14.72a9.39,9.39,0,0,1,18.78,0Z"/><path class="cls-6" d="M25.7,24.09H22.55a1.59,1.59,0,0,1,3.15,0Z"/><path d="M22.55,24.52H25.7a1.59,1.59,0,0,1-3.15,0Z"/></g></g></svg>